<svg width="150" height="33" viewBox="0 0 150 33" fill="none" xmlns="http://www.w3.org/2000/svg">
<path d="M46.5188 12.4326C49.3669 12.4326 51.9152 14.7349 51.9152 17.9582C51.9152 21.4884 49.8166 23.7908 46.219 23.7908C43.2209 23.7908 40.8225 21.4884 40.8225 18.4187C40.8225 14.7349 43.2209 12.4326 46.5188 12.4326ZM46.3689 15.3489C45.3196 15.3489 44.4201 16.4233 44.4201 17.9582C44.4201 19.9535 45.1697 20.8745 46.5188 20.8745C47.718 20.8745 48.4675 19.8001 48.4675 18.2652C48.4675 16.4233 47.5681 15.3489 46.3689 15.3489Z" fill="#212121"/>
<path d="M59.1104 23.7907C55.5128 23.7907 53.714 21.7954 53.714 18.5721V9.05585H54.6134C56.5621 9.05585 57.3116 9.6698 57.3116 11.3582V13.814C57.9112 13.0465 58.5108 12.2791 60.0098 12.2791C62.858 12.2791 64.9566 14.2745 64.9566 17.8047C64.9566 21.4884 62.5582 23.7907 59.1104 23.7907ZM59.2603 15.3489C58.0611 15.3489 57.3116 16.4233 57.3116 18.1117C57.3116 20.2605 58.0611 20.8745 59.4102 20.8745C60.6095 20.8745 61.359 19.9535 61.359 18.2651C61.359 16.1163 60.6095 15.3489 59.2603 15.3489Z" fill="#212121"/>
<path d="M66.3058 27.1675C65.2565 27.1675 64.507 26.5535 64.507 25.6326V24.5582H64.9567C66.4557 24.4047 67.2052 24.0977 67.2052 22.2558V13.0465H68.2545C70.0533 13.0465 70.8028 14.121 70.8028 15.5024V22.4093C70.6529 25.1721 69.3038 27.1675 66.3058 27.1675ZM68.8541 12.1256C67.8048 12.1256 66.9054 11.3582 66.9054 10.2838C66.9054 9.20934 67.8048 8.44189 68.8541 8.44189C69.9034 8.44189 70.8028 9.20934 70.8028 10.2838C70.8028 11.3582 69.9034 12.1256 68.8541 12.1256Z" fill="#212121"/>
<path d="M77.8481 19.4931H76.3491C76.499 20.5675 77.3984 21.028 78.8974 21.028C80.5463 21.028 81.5956 20.721 82.1952 20.414H82.3451V21.3349C82.3451 22.7163 81.2958 23.9442 78.2978 23.9442C74.7002 23.9442 72.7515 21.4884 72.7515 18.4187C72.7515 15.1954 74.8501 12.4326 78.1479 12.4326C80.8461 12.4326 83.0947 13.9675 83.0947 16.7303C82.9448 18.8791 81.2958 19.4931 77.8481 19.4931ZM77.998 15.1954C76.6489 15.1954 76.1992 15.9628 76.0493 17.0373H77.3984C79.0473 17.0373 79.3471 16.7303 79.3471 16.2698C79.497 15.8094 79.0473 15.1954 77.998 15.1954Z" fill="#212121"/>
<path d="M89.8403 23.7907C86.6924 23.7907 84.2939 21.1814 84.2939 18.2651C84.2939 14.5814 86.5425 12.4326 89.2407 12.4326C90.5898 12.4326 91.6391 13.0465 91.9389 13.814V9.05585H93.288C94.787 9.05585 95.5365 9.82329 95.5365 11.6651V17.9582C95.5365 21.7954 94.0375 23.7907 89.8403 23.7907ZM89.6904 15.3489C88.6411 15.3489 87.8916 16.4233 87.8916 17.9582C87.8916 20.107 88.791 20.8745 90.1401 20.8745C91.3393 20.8745 91.789 19.9535 91.789 18.2651C91.9389 15.9628 91.0395 15.3489 89.6904 15.3489Z" fill="#212121"/>
<path d="M106.629 23.4838C104.98 23.4838 104.531 22.8698 104.531 21.3349V17.4977C104.531 16.1163 104.081 15.3489 102.882 15.3489C101.832 15.3489 101.233 16.1163 101.233 17.3442V23.3303H100.034C98.5345 23.3303 97.6351 22.7163 97.6351 21.1814V17.3442C97.6351 14.2745 99.5838 12.2791 103.032 12.2791C106.779 12.2791 108.278 14.2745 108.278 17.4977V23.3303H106.629V23.4838Z" fill="#212121"/>
<path d="M114.274 23.7908C112.325 23.7908 109.777 22.8698 109.777 20.414C109.777 17.9582 111.426 16.8838 115.323 16.8838H115.923V16.4233C115.923 15.5024 115.323 15.3489 113.824 15.3489C111.876 15.3489 111.126 15.8094 110.377 16.5768H110.227V15.0419C110.227 13.6605 111.576 12.4326 114.574 12.4326C117.422 12.4326 119.371 13.9675 119.371 17.0373V18.7256C119.371 22.7163 118.172 23.7908 114.274 23.7908ZM115.923 19.0326H115.174C113.824 19.0326 113.225 19.3396 113.225 20.107C113.225 20.721 113.675 21.1815 114.724 21.1815C115.323 21.1815 115.923 20.8745 115.923 19.8001V19.0326Z" fill="#212121"/>
<path d="M136.46 23.4838C134.511 23.4838 134.061 22.7163 134.061 21.3349V17.3442C134.061 15.9628 133.611 15.5024 132.562 15.5024C131.513 15.5024 131.213 16.2698 131.213 17.3442V23.4838H130.014C128.515 23.4838 127.765 23.0233 127.765 21.3349V17.3442C127.765 16.1163 127.316 15.5024 126.266 15.5024C125.217 15.5024 124.917 15.9628 124.917 17.3442V23.4838H123.718C122.069 23.4838 121.32 22.7163 121.32 21.3349V17.4977C121.32 14.428 123.118 12.4326 126.416 12.4326C128.065 12.4326 129.264 13.507 129.714 14.2745C130.164 13.507 131.513 12.4326 133.012 12.4326C136.01 12.4326 137.809 14.2745 137.809 17.6512V23.4838H136.46Z" fill="#212121"/>
<path d="M144.554 19.4931H143.055C143.205 20.5675 144.105 21.028 145.604 21.028C147.253 21.028 148.302 20.721 148.901 20.414H149.051V21.3349C149.051 22.7163 148.002 23.9442 145.004 23.9442C141.406 23.9442 139.458 21.4884 139.458 18.4187C139.458 15.1954 141.556 12.4326 144.854 12.4326C147.552 12.4326 149.801 13.9675 149.801 16.7303C149.651 18.8791 148.152 19.4931 144.554 19.4931ZM144.854 15.1954C143.505 15.1954 143.055 15.9628 142.905 17.0373H144.404C146.053 17.0373 146.353 16.7303 146.353 16.2698C146.353 15.8094 145.903 15.1954 144.854 15.1954Z" fill="#212121"/>
<path d="M116.673 11.0512H114.574V10.4372C114.574 9.66979 115.174 8.90234 116.073 8.90234H118.172V9.5163C118.172 10.4372 117.572 11.0512 116.673 11.0512Z" fill="#212121"/>
<path d="M22.3847 11.3582C22.5346 11.6651 22.8344 11.9721 22.9843 12.1256C23.434 12.5861 24.0336 13.0465 24.6332 13.2C24.933 13.814 25.2328 14.5814 25.2328 15.8093C25.2328 15.8093 25.3827 13.9675 25.2328 13.2C25.2328 13.2 27.4813 13.507 29.7299 13.0465C30.0297 13.0465 30.1796 12.893 30.4794 12.893C30.6293 12.893 30.6293 12.893 30.7792 12.7395C33.7772 11.8186 35.576 10.1302 36.1756 9.36281C36.6253 8.59536 37.2249 7.98141 37.6746 7.21397C37.9744 6.7535 37.6746 5.98606 37.2249 5.67908C33.0277 2.91629 28.2309 1.07443 23.2841 0.46048C21.7851 0.306992 20.436 0.153503 18.937 0.153503C13.8403 0.153503 8.74367 1.38141 4.09673 3.68374C2.89752 4.29769 1.69831 4.91164 0.648997 5.67908C0.199293 5.98606 -0.10051 6.7535 0.199293 7.21397C0.798899 8.1349 1.3985 8.90234 1.99811 9.82327C3.34722 11.8186 4.84624 13.814 6.19535 15.8093C7.84426 18.2651 9.64308 20.5675 11.292 23.0233C12.791 25.0186 14.29 27.1675 15.6391 29.1628C16.3886 30.2372 17.1381 31.1582 17.7378 32.2326C18.3374 33 19.0869 33 19.6865 32.2326C20.2861 31.4651 20.8857 30.5442 21.4853 29.7768C21.7851 29.3163 22.2348 28.8558 22.5346 28.3954L25.2328 24.5582C25.5326 24.0977 25.8324 23.6372 26.1322 23.1768C28.2309 19.6465 24.3334 19.6465 24.3334 19.6465C24.6332 19.1861 24.6332 19.0326 24.4833 19.0326C23.1342 19.0326 21.4853 20.2605 19.9863 20.7209C18.4873 21.1814 15.789 20.7209 14.8896 20.107C13.9902 19.493 14.5898 18.5721 14.5898 18.5721C14.1401 18.4186 13.5405 18.1116 13.5405 17.1907C13.5405 16.7302 13.6904 16.4233 14.1401 16.1163C13.5405 15.9628 13.0908 15.3489 13.0908 14.7349C13.0908 14.2744 13.3906 13.814 13.6904 13.507C13.0908 13.507 12.6411 12.893 12.6411 12.2791C12.6411 11.8186 12.9409 11.5116 13.2407 11.2047C13.5405 11.0512 13.9902 11.0512 14.1401 11.0512C14.1401 11.0512 14.1401 11.0512 14.29 11.0512C14.8896 11.2047 16.2387 11.5116 17.438 11.6651C18.0376 11.8186 18.7871 11.5116 18.7871 10.5907C18.937 9.66978 17.7378 7.98141 17.7378 7.98141C17.7378 7.98141 16.9882 7.06048 16.9882 6.29304C16.9882 5.5256 17.1381 4.75815 17.7378 4.29769C18.3374 3.83722 18.937 3.83722 19.2368 4.29769C19.2368 4.29769 19.3867 4.45118 19.3867 4.75815C19.3867 5.06513 19.3867 5.37211 19.3867 5.5256C19.3867 5.67908 19.8364 6.90699 20.5859 8.1349C21.3354 9.36281 21.6352 9.97676 21.7851 10.4372C21.935 10.5907 22.2348 11.0512 22.3847 11.3582Z" fill="#FF6C1E"/>
</svg>
